<?xml version="1.0" standalone="no"?><!DOCTYPE svg PUBLIC "-//W3C//DTD SVG 1.1//EN" "http://www.w3.org/Graphics/SVG/1.1/DTD/svg11.dtd"><svg t="1678518544227" class="icon" viewBox="0 0 1024 1024" version="1.1" xmlns="http://www.w3.org/2000/svg" p-id="29966" xmlns:xlink="http://www.w3.org/1999/xlink" width="200" height="200"><path d="M831.34464 907.5712l-48.0256-36.51584s51.99872-24.0128 74.45504-24.13568V618.50624l-30.43328-28.38528v-68.03456l30.43328-10.6496V269.42464h-694.8864v135.0144l34.02752 17.00864v34.01728l22.00576 36.01408-56.03328 38.26688v391.53664c9.71776-9.3696 20.85888-14.62272 33.024-10.72128 42.02496 13.50656 45.02528-19.5072 45.02528-19.5072s8.00768 39.0144 1.72032 76.52352h97.51552l33.52576-175.57504 20.48 175.57504h295.85408l27.24864-91.52512 38.02112 91.52512h80.29184l-4.2496-60.0064z" fill="#FBE7CD" p-id="29967"></path><path d="M810.19904 891.4944c-14.90944 5.75488-26.86976 11.27424-26.86976 11.27424l48.0256 36.51584 2.00704 28.30336h2.24256l-4.2496-60.01664-21.15584-16.0768zM244.51072 951.71584a173.30176 173.30176 0 0 1-1.8432 15.872h2.38592a254.48448 254.48448 0 0 0-0.54272-15.872zM205.2608 500.81792l-42.36288 28.928v31.71328l56.03328-38.26688zM162.89792 269.42464h694.8864v31.71328h-694.8864zM827.35104 621.83424l30.42304 28.38528v-31.71328l-30.42304-28.38528z" fill="#EFDAB6" p-id="29968"></path><path d="M497.2544 342.77376a81.34656 81.34656 0 0 0-81.34656 81.33632c0 39.64928 22.45632 92.45696 81.34656 151.31648 58.89024-58.85952 81.34656-111.6672 81.34656-151.31648a81.33632 81.33632 0 0 0-81.34656-81.33632z m0 102.21568a30.37184 30.37184 0 0 1-30.39232-30.3616 30.38208 30.38208 0 0 1 60.76416 0 30.3616 30.3616 0 0 1-30.37184 30.3616z" fill="#F68C43" p-id="29969"></path><path d="M162.89792 162.9184m-106.51648 0a106.51648 106.51648 0 1 0 213.03296 0 106.51648 106.51648 0 1 0-213.03296 0Z" fill="#EFDAB6" p-id="29970"></path><path d="M967.61856 162.9184c0-58.81856-47.69792-106.50624-106.51648-106.50624H162.89792c58.8288 0 106.51648 47.68768 106.51648 106.50624 0 53.05344-38.83008 96.91136-89.58976 105.04192l0.9728-0.08192c-0.9216 0.1536-1.86368 0.22528-2.79552 0.3584-1.80224 0.256-3.59424 0.54272-5.41696 0.70656-3.18464 0.3072-6.41024 0.49152-9.6768 0.49152h698.2144c21.69856 0 41.87136-6.52288 58.70592-17.69472l-77.19936-67.36896 115.28192 22.81472c6.15424-13.49632 9.70752-28.44672 9.70752-44.26752z" fill="#EFDAB6" p-id="29971"></path><path d="M247.06048 792.7296m-30.19776 0a30.19776 30.19776 0 1 0 60.39552 0 30.19776 30.19776 0 1 0-60.39552 0Z" fill="#FFFFFF" p-id="29972"></path><path d="M434.0736 817.85856c28.98944-41.07264-8.61184-113.89952 164.83328-115.18976s165.49888-95.77472 203.22304-46.592-38.83008 67.30752-28.47744 94.48448c10.35264 27.17696-119.08096 25.88672-130.73408 84.13184-11.65312 58.24512-110.01856 77.19936-125.55264 43.13088-15.53408-34.06848-19.41504-39.24992-58.24512-22.4256-38.84032 16.81408-47.75936-5.376-25.04704-37.53984z" fill="#6AC9CC" p-id="29973"></path><path d="M497.2544 580.608a5.13024 5.13024 0 0 1-3.65568-1.51552c-53.43232-53.4016-82.86208-108.4416-82.86208-154.9824 0-47.70816 38.8096-86.51776 86.51776-86.51776s86.528 38.8096 86.528 86.51776c0 46.53056-29.42976 101.57056-82.86208 154.9824a5.19168 5.19168 0 0 1-3.66592 1.51552z m0-232.66304c-41.99424 0-76.16512 34.17088-76.16512 76.16512 0 42.72128 27.01312 93.696 76.16512 143.95392 49.16224-50.25792 76.17536-101.23264 76.17536-143.95392-0.01024-41.99424-34.18112-76.16512-76.17536-76.16512z m0 102.21568c-19.6096 0-35.57376-15.94368-35.57376-35.54304s15.95392-35.54304 35.57376-35.54304c19.59936 0 35.55328 15.94368 35.55328 35.54304s-15.95392 35.54304-35.55328 35.54304z m0-60.7232c-13.90592 0-25.21088 11.29472-25.21088 25.1904s11.3152 25.1904 25.21088 25.1904c13.89568 0 25.1904-11.29472 25.1904-25.1904s-11.29472-25.1904-25.1904-25.1904zM162.89792 274.60608C101.30432 274.60608 51.2 224.50176 51.2 162.9184S101.30432 51.23072 162.89792 51.23072c61.58336 0 111.68768 50.10432 111.68768 111.68768s-50.10432 111.68768-111.68768 111.68768z m0-213.01248c-55.87968 0-101.34528 45.45536-101.34528 101.33504s45.45536 101.33504 101.34528 101.33504c55.87968 0 101.33504-45.45536 101.33504-101.33504s-45.4656-101.33504-101.33504-101.33504z" fill="#136296" p-id="29974"></path><path d="M223.35488 255.68256a5.1712 5.1712 0 0 1-4.82304-7.05536c28.39552-73.1136-0.13312-110.1824-13.71136-122.71616-20.11136-18.57536-48.36352-23.94112-70.28736-13.37344-15.75936 7.60832-26.50112 25.31328-28.03712 46.1824-1.47456 20.0192 6.03136 37.65248 20.06016 47.17568 14.03904 9.53344 29.39904 9.8816 41.08288 0.98304 10.10688-7.71072 14.15168-19.98848 10.2912-31.26272-2.26304-6.61504-5.69344-10.752-10.48576-12.65664-9.53344-3.77856-21.51424 2.43712-21.63712 2.49856a5.18144 5.18144 0 0 1-4.864-9.14432c0.65536-0.3584 16.25088-8.51968 30.2592-3.01056 7.70048 3.03104 13.2608 9.4208 16.52736 18.95424 5.24288 15.32928-0.31744 32.54272-13.80352 42.84416-11.8784 9.07264-32.09216 13.6704-53.17632-0.63488-17.13152-11.6224-26.3168-32.74752-24.576-56.49408 1.80224-24.56576 14.77632-45.54752 33.86368-54.75328 25.72288-12.42112 58.59328-6.35904 81.8176 15.08352 15.13472 13.9776 47.03232 55.01952 16.34304 134.07232a5.23264 5.23264 0 0 1-4.84352 3.30752zM162.99008 274.60608c-2.85696 0-5.20192-2.31424-5.20192-5.18144s2.29376-5.18144 5.15072-5.18144h0.0512a5.18144 5.18144 0 1 1 0 10.36288z" fill="#136296" p-id="29975"></path><path d="M162.99008 274.60608c-2.85696 0-5.20192-2.31424-5.20192-5.18144s2.29376-5.18144 5.15072-5.18144h0.0512a5.18144 5.18144 0 1 1 0 10.36288z" fill="#136296" p-id="29976"></path><path d="M861.10208 274.60608H162.89792a5.18144 5.18144 0 1 1 0-10.36288c2.88768 0 5.89824-0.1536 9.18528-0.4608 1.41312-0.12288 2.78528-0.32768 4.13696-0.52224l2.23232-0.29696a3.19488 3.19488 0 0 1 0.54272-0.11264 100.77184 100.77184 0 0 0 85.22752-99.92192c0-55.86944-45.45536-101.33504-101.34528-101.33504a5.18144 5.18144 0 1 1 0-10.36288h698.2144C922.69568 51.23072 972.8 101.33504 972.8 162.9184a110.7968 110.7968 0 0 1-10.19904 46.41792 5.19168 5.19168 0 0 1-5.71392 2.92864l-96.26624-19.05664 62.59712 54.62016a5.16096 5.16096 0 0 1-0.54272 8.21248 111.0528 111.0528 0 0 1-61.57312 18.56512z m-651.27424-10.35264h651.27424a100.67968 100.67968 0 0 0 50.00192-13.23008l-71.89504-62.74048a5.1712 5.1712 0 1 1 4.41344-8.98048l111.18592 22.00576a100.2496 100.2496 0 0 0 7.63904-38.37952c0-55.86944-45.45536-101.33504-101.34528-101.33504H209.84832c38.1952 17.7664 64.73728 56.50432 64.73728 101.33504 0 44.65664-25.94816 83.53792-64.75776 101.3248z" fill="#136296" p-id="29977"></path><path d="M162.99008 61.5936a5.20192 5.20192 0 0 1-5.20192-5.18144c0-2.85696 2.29376-5.18144 5.15072-5.18144h0.0512a5.18144 5.18144 0 1 1 0 10.36288zM835.59424 972.76928H755.3024a5.1712 5.1712 0 0 1-4.78208-3.19488l-32.44032-78.08-23.10144 77.568a5.1712 5.1712 0 0 1-4.95616 3.69664H394.16832a5.16096 5.16096 0 0 1-5.14048-4.57728l-16.57856-142.09024-27.19744 142.45888a5.18144 5.18144 0 0 1-5.08928 4.20864h-97.51552a5.16096 5.16096 0 0 1-5.10976-6.03136c3.56352-21.21728 2.37568-43.1616 0.77824-57.72288-1.536 1.7408-3.3792 3.39968-5.57056 4.85376-9.44128 6.2464-22.3744 6.79936-38.43072 1.62816-9.10336-2.9184-18.19648 0.2048-27.84256 9.51296a5.16096 5.16096 0 0 1-8.77568-3.72736V529.74592c0-1.71008 0.83968-3.30752 2.26304-4.27008l51.968-35.4816-19.44576-31.81568a5.2224 5.2224 0 0 1-0.75776-2.70336v-30.8224l-31.17056-15.57504a5.18144 5.18144 0 0 1-2.85696-4.62848V269.42464c0-2.85696 2.31424-5.18144 5.18144-5.18144h694.8864c2.85696 0 5.18144 2.31424 5.18144 5.18144v242.0224a5.1712 5.1712 0 0 1-3.47136 4.88448l-26.96192 9.43104v62.1056l28.78464 26.84928c1.04448 0.98304 1.6384 2.3552 1.6384 3.7888v228.41344a5.19168 5.19168 0 0 1-5.15072 5.18144c-16.01536 0.08192-49.16224 13.568-64.36864 20.14208l41.04192 31.21152a5.16096 5.16096 0 0 1 2.02752 3.75808l4.2496 60.01664a5.18144 5.18144 0 0 1-5.14048 5.53984z m-76.84096-10.36288h71.28064l-3.6864-52.13184-46.16192-35.09248a5.18144 5.18144 0 0 1 0.96256-8.81664c2.01728-0.93184 46.52032-21.38112 71.44448-24.27904V620.75904l-28.78464-26.84928a5.20192 5.20192 0 0 1-1.6384-3.7888v-68.03456c0-2.2016 1.39264-4.15744 3.47136-4.88448l26.96192-9.43104v-233.1648H168.06912v126.63808l31.17056 15.57504a5.18144 5.18144 0 0 1 2.85696 4.62848v32.5632l21.248 34.77504c1.4336 2.3552 0.77824 5.41696-1.50528 6.97344L168.06912 532.48v377.97888c9.69728-6.36928 19.54816-7.9872 29.42976-4.82304 12.92288 4.15744 22.85568 4.02432 29.5424-0.4096 7.66976-5.0688 8.73472-14.5408 8.74496-14.6432a5.18144 5.18144 0 0 1 4.864-4.70016 5.3248 5.3248 0 0 1 5.35552 4.12672c0.31744 1.54624 7.3216 36.39296 2.65216 72.38656h87.22432l32.7168-171.3664a5.18144 5.18144 0 0 1 10.22976 0.36864l19.94752 170.99776h287.3856l26.15296-87.82848a5.1712 5.1712 0 0 1 9.73824-0.512l36.70016 88.35072z" fill="#136296" p-id="29978"></path><path d="M255.71328 737.19808a5.16096 5.16096 0 0 1-5.14048-5.8368c0.04096-0.31744 1.06496-7.85408 5.98016-18.65728a5.18144 5.18144 0 0 1 9.43104 4.28032c-4.21888 9.27744-5.13024 15.6672-5.14048 15.72864a5.19168 5.19168 0 0 1-5.13024 4.48512zM281.2928 690.87232a5.1712 5.1712 0 0 1-3.7376-8.7552 138.61888 138.61888 0 0 1 28.8768-22.80448 5.1712 5.1712 0 1 1 5.33504 8.87808 129.14688 129.14688 0 0 0-26.74688 21.10464 5.16096 5.16096 0 0 1-3.72736 1.57696z m59.96544-36.93568a5.19168 5.19168 0 0 1-1.73056-10.06592 249.7536 249.7536 0 0 1 35.01056-9.46176 5.19168 5.19168 0 0 1 1.9968 10.16832 237.54752 237.54752 0 0 0-33.536 9.05216 5.24288 5.24288 0 0 1-1.7408 0.3072z m69.45792-14.08a5.1712 5.1712 0 0 1-0.43008-10.33216 429.88544 429.88544 0 0 1 35.72736-1.4336c2.92864 0.1536 5.3248 2.28352 5.3248 5.18144 0 2.88768-2.4576 5.28384-5.21216 5.18144-12.17536 0-23.9104 0.47104-34.9696 1.40288h-0.44032z m75.97056-0.6144l-4.9664-0.02048a5.1712 5.1712 0 0 1 0.0512-10.35264h0.04096l4.87424 0.02048c10.24 0 20.41856-0.32768 30.2592-0.96256a5.18144 5.18144 0 0 1 0.6656 10.33216c-10.05568 0.65536-20.45952 0.98304-30.9248 0.98304z m65.91488-4.73088a5.18144 5.18144 0 0 1-0.768-10.2912 359.936 359.936 0 0 0 34.34496-6.85056 5.19168 5.19168 0 0 1 2.52928 10.04544 369.72544 369.72544 0 0 1-35.328 7.05536 6.6048 6.6048 0 0 1-0.77824 0.04096z m68.75136-17.5104a5.18144 5.18144 0 0 1-1.82272-10.02496 269.96736 269.96736 0 0 0 31.75424-14.30528 5.1712 5.1712 0 1 1 4.87424 9.13408 279.42912 279.42912 0 0 1-32.99328 14.85824 5.0688 5.0688 0 0 1-1.81248 0.33792z m62.40256-33.52576a5.1712 5.1712 0 0 1-3.09248-9.32864 208.97792 208.97792 0 0 0 26.0096-22.84544 5.1712 5.1712 0 1 1 7.46496 7.17824 219.53536 219.53536 0 0 1-27.29984 23.98208 5.19168 5.19168 0 0 1-3.08224 1.01376z m48.88576-51.0464a5.1712 5.1712 0 0 1-4.3008-8.04864 194.70336 194.70336 0 0 0 16.51712-30.34112 5.18144 5.18144 0 0 1 9.50272 4.11648 203.38688 203.38688 0 0 1-17.39776 31.96928 5.2224 5.2224 0 0 1-4.32128 2.304z m28.22144-64.78848a5.18144 5.18144 0 0 1-5.02784-6.4c2.68288-10.98752 4.5568-22.50752 5.57056-34.24256a5.07904 5.07904 0 0 1 5.60128-4.7104 5.1712 5.1712 0 0 1 4.7104 5.60128 237.69088 237.69088 0 0 1-5.81632 35.80928 5.2224 5.2224 0 0 1-5.03808 3.9424zM767.13984 396.63616a5.19168 5.19168 0 0 1-5.1712-4.92544 290.14016 290.14016 0 0 0-1.42336-17.7664 5.18144 5.18144 0 0 1 10.2912-1.13664c0.68608 6.2464 1.18784 12.43136 1.47456 18.39104a5.19168 5.19168 0 0 1-4.9152 5.4272l-0.256 0.01024z" fill="#136296" p-id="29979"></path><path d="M770.10944 342.77376l10.97728-10.98752a5.1712 5.1712 0 1 0-7.3216-7.3216l-10.97728 10.98752-10.97728-10.98752a5.18144 5.18144 0 0 0-7.3216 7.3216l10.97728 10.98752-10.97728 10.98752a5.1712 5.1712 0 1 0 7.31136 7.3216l10.97728-10.98752 10.97728 10.98752a5.15072 5.15072 0 0 0 7.31136 0 5.1712 5.1712 0 0 0 0-7.3216l-10.9568-10.98752z" fill="#F0566F" p-id="29980"></path><path d="M247.06048 828.1088a35.42016 35.42016 0 0 1-35.3792-35.3792 35.42016 35.42016 0 0 1 35.3792-35.3792 35.42016 35.42016 0 0 1 35.3792 35.3792 35.4304 35.4304 0 0 1-35.3792 35.3792z m0-60.39552c-13.79328 0-25.02656 11.22304-25.02656 25.01632s11.22304 25.02656 25.02656 25.02656c13.79328 0 25.02656-11.22304 25.02656-25.02656s-11.23328-25.01632-25.02656-25.01632z" fill="#136296" p-id="29981"></path><path d="M554.68032 899.8912c-20.59264 0-36.23936-7.23968-42.0352-19.93728-14.83776-32.52224-16.04608-35.1744-51.47648-19.8144-25.94816 11.25376-36.59776 4.59776-40.64256-0.37888-7.60832-9.35936-4.21888-25.72288 9.3184-44.89216 6.58432-9.3184 9.53344-20.736 12.6464-32.8192 10.11712-39.168 21.58592-83.5584 156.37504-84.57216 96.09216-0.7168 134.85056-30.04416 158.01344-47.5648 17.94048-13.568 29.78816-22.51776 49.3568 3.00032 25.53856 33.30048 3.3792 54.9376-12.8 70.73792-11.1104 10.8544-17.65376 17.95072-14.9504 25.05728a12.8 12.8 0 0 1-0.37888 10.41408c-4.864 9.91232-22.14912 15.18592-46.06976 22.46656-34.74432 10.58816-77.9776 23.7568-84.04992 54.10816-7.59808 38.00064-47.9232 59.57632-82.18624 63.52896a95.40608 95.40608 0 0 1-11.12064 0.6656z m-64.59392-58.99264c14.36672 0 21.0944 10.89536 31.98976 34.7648 4.78208 10.496 21.43232 15.7184 42.5472 13.28128 31.62112-3.65568 66.92864-23.81824 73.216-55.28576 7.28064-36.41344 53.80096-50.59584 91.1872-61.98272 18.14528-5.5296 36.90496-11.24352 39.7824-17.12128 0.28672-0.57344 0.38912-1.15712 0-2.17088-5.31456-13.96736 6.22592-25.2416 17.39776-36.1472 16.3328-15.95392 31.75424-31.01696 11.80672-57.02656-13.30176-17.3568-17.02912-14.56128-34.88768-1.04448-24.18688 18.29888-64.65536 48.92672-164.17792 49.664-126.84288 0.94208-136.79616 39.50592-146.432 76.8-3.21536 12.45184-6.54336 25.32352-14.21312 36.1984-11.58144 16.40448-13.24032 28.08832-9.73824 32.38912 2.83648 3.4816 11.79648 4.63872 28.48768-2.59072 14.71488-6.35904 25.04704-9.728 33.03424-9.728z" fill="#136296" p-id="29982"></path><path d="M484.16768 791.54176a5.16096 5.16096 0 0 1-5.14048-5.8368c1.0752-8.05888 9.24672-23.27552 31.42656-22.56896a5.18144 5.18144 0 0 1-0.256 10.3424l-0.9728-0.01024c-17.32608 0-19.712 12.2368-19.92704 13.64992a5.2224 5.2224 0 0 1-5.13024 4.42368z" fill="#136296" p-id="29983"></path><path d="M622.1312 753.21344a5.16096 5.16096 0 0 1-5.14048-5.8368c1.0752-8.05888 9.23648-23.28576 31.42656-22.56896a5.18144 5.18144 0 0 1-0.13312 10.35264h-0.13312l-0.9728-0.01024c-17.32608 0-19.712 12.2368-19.92704 13.64992a5.20192 5.20192 0 0 1-5.12 4.41344z" fill="#136296" p-id="29984"></path><path d="M728.23808 744.17152a5.16096 5.16096 0 0 1-5.14048-5.8368c1.0752-8.05888 9.23648-23.28576 31.42656-22.56896a5.18144 5.18144 0 0 1-0.256 10.3424l-0.9728-0.01024c-17.32608 0-19.712 12.2368-19.92704 13.64992a5.20192 5.20192 0 0 1-5.13024 4.42368z" fill="#136296" p-id="29985"></path><path d="M567.63392 855.33696a5.16096 5.16096 0 0 1-5.14048-5.8368c1.0752-8.05888 9.20576-23.23456 31.42656-22.56896 2.85696 0.07168 5.12 2.44736 5.04832 5.30432a5.07904 5.07904 0 0 1-5.30432 5.03808l-0.9728-0.01024c-17.32608 0-19.712 12.2368-19.92704 13.64992a5.21216 5.21216 0 0 1-5.13024 4.42368z" fill="#136296" p-id="29986"></path></svg>