<?xml version="1.0" standalone="no"?><!DOCTYPE svg PUBLIC "-//W3C//DTD SVG 1.1//EN" "http://www.w3.org/Graphics/SVG/1.1/DTD/svg11.dtd"><svg t="1678518548098" class="icon" viewBox="0 0 1024 1024" version="1.1" xmlns="http://www.w3.org/2000/svg" p-id="30126" xmlns:xlink="http://www.w3.org/1999/xlink" width="200" height="200"><path d="M512 428.8c-127.49824 0-230.85056 103.99744-230.85056 232.2944v123.56608c0 101.02784 81.39776 182.92736 181.80096 182.92736h98.10944c100.4032 0 181.80096-81.89952 181.80096-182.92736V661.0944C742.85056 532.80768 639.49824 428.8 512 428.8z" fill="#53C2BA" p-id="30127"></path><path d="M485.66272 535.3472v82.81088H329.6256l34.49856-42.10688a82.78016 82.78016 0 0 1 40.61184-26.9824c21.15584-6.27712 52.31616-13.7216 80.92672-13.7216zM538.33728 535.3472v82.81088H694.3744l-34.49856-42.10688a82.78016 82.78016 0 0 0-40.61184-26.9824c-21.15584-6.27712-52.31616-13.7216-80.92672-13.7216z" fill="#FFFFFF" p-id="30128"></path><path d="M512 428.8c20.85888 0 40.96 3.03104 60.18048 8.25344-5.05856-138.82368-28.416-278.4256-44.52352-360.51968-5.26336-26.8288-26.0608-26.8288-31.32416 0-16.09728 82.10432-39.46496 221.70624-44.52352 360.51968A229.45792 229.45792 0 0 1 512 428.8z" fill="#53C2BA" p-id="30129"></path><path d="M104.89856 457.64608c16.57856 19.13856 107.90912 39.64928 234.0352 50.0736C381.2352 459.42784 442.99264 428.81024 512 428.81024H115.33312c0-0.01024-33.93536 1.71008-10.43456 28.83584zM908.66688 428.8H512c69.00736 0 130.75456 30.62784 173.06624 78.90944 126.12608-10.42432 217.45664-30.93504 234.0352-50.0736 23.5008-27.11552-10.43456-28.83584-10.43456-28.83584z" fill="#FEE36F" p-id="30130"></path><path d="M742.85056 698.19392v86.45632c0 44.35968-15.70816 85.01248-41.80992 116.6848 40.43776-1.21856 186.42944 0 266.57792-38.28736V688.77312c-104.59136 7.03488-224.768 9.4208-224.768 9.4208zM281.14944 698.19392v86.45632c0 44.35968 15.70816 85.01248 41.80992 116.6848-40.43776-1.21856-186.42944 0-266.57792-38.28736V688.77312c104.59136 7.03488 224.768 9.4208 224.768 9.4208z" fill="#FEE36F" p-id="30131"></path><path d="M56.38144 805.33504v57.72288c80.14848 38.28736 226.14016 37.05856 266.57792 38.28736a182.90688 182.90688 0 0 1-32.33792-58.4192c-60.03712-1.4336-168.97024-6.41024-234.24-37.59104zM967.61856 805.33504v57.72288c-80.14848 38.28736-226.14016 37.05856-266.57792 38.28736a182.90688 182.90688 0 0 0 32.33792-58.4192c60.03712-1.4336 168.97024-6.41024 234.24-37.59104z" fill="#6AC9CC" p-id="30132"></path><path d="M282.624 721.5616a5.18144 5.18144 0 0 1-5.09952-4.37248c-1.024-6.2976-1.54624-12.68736-1.54624-18.9952 0-2.87744 2.31424-5.21216 5.18144-5.21216 2.85696 0 5.18144 2.33472 5.18144 5.21216 0 5.74464 0.47104 11.56096 1.41312 17.31584a5.20192 5.20192 0 0 1-5.13024 6.05184zM494.85824 885.47328a8.22272 8.22272 0 0 1-0.50176-0.02048 233.3696 233.3696 0 0 1-35.70688-6.47168 5.2224 5.2224 0 0 1 2.59072-10.09664c11.7248 3.04128 23.20384 5.12 34.11968 6.18496a5.19168 5.19168 0 0 1 4.64896 5.6832 5.20192 5.20192 0 0 1-5.15072 4.72064z m35.4304 0a5.19168 5.19168 0 0 1-5.15072-4.73088 5.19168 5.19168 0 0 1 4.67968-5.66272c11.08992-1.024 22.59968-3.00032 34.21184-5.85728a5.21216 5.21216 0 0 1 2.4576 10.11712 244.55168 244.55168 0 0 1-36.1984 6.13376z m68.82304-16.71168a5.2224 5.2224 0 0 1-1.86368-10.07616 287.8464 287.8464 0 0 0 31.71328-14.57152 5.16096 5.16096 0 0 1 7.00416 2.1504 5.2224 5.2224 0 0 1-2.14016 7.04512 299.15136 299.15136 0 0 1-32.84992 15.09376 5.23264 5.23264 0 0 1-1.86368 0.3584z m-172.9024-0.7168a5.20192 5.20192 0 0 1-1.90464-0.36864 315.2896 315.2896 0 0 1-32.72704-15.3088 5.24288 5.24288 0 0 1-2.11968-7.05536 5.18144 5.18144 0 0 1 7.0144-2.12992 305.85856 305.85856 0 0 0 31.6416 14.80704 5.2224 5.2224 0 0 1 2.90816 6.76864 5.19168 5.19168 0 0 1-4.8128 3.28704z m235.43808-32.80896a5.2224 5.2224 0 0 1-2.99008-9.472 248.05376 248.05376 0 0 0 26.96192-22.04672 5.15072 5.15072 0 0 1 7.3216 0.22528 5.2224 5.2224 0 0 1-0.21504 7.36256 258.048 258.048 0 0 1-28.09856 22.97856 5.15072 5.15072 0 0 1-2.97984 0.95232z m-297.87136-0.94208c-1.024 0-2.05824-0.3072-2.9696-0.94208a268.97408 268.97408 0 0 1-28.2112-22.784 5.24288 5.24288 0 0 1-0.29696-7.36256 5.16096 5.16096 0 0 1 7.31136-0.29696 260.11648 260.11648 0 0 0 27.12576 21.90336 5.2224 5.2224 0 0 1-2.95936 9.48224zM712.9088 786.2272a5.2224 5.2224 0 0 1-4.12672-8.33536 158.99648 158.99648 0 0 0 17.65376-29.58336 5.1712 5.1712 0 0 1 6.8608-2.58048 5.23264 5.23264 0 0 1 2.57024 6.90176 170.02496 170.02496 0 0 1-18.80064 31.51872 5.2224 5.2224 0 0 1-4.15744 2.07872z m-400.85504-0.48128a5.1712 5.1712 0 0 1-4.096-2.01728 170.41408 170.41408 0 0 1-19.29216-31.22176 5.2224 5.2224 0 0 1 2.4576-6.94272 5.16096 5.16096 0 0 1 6.90176 2.46784c4.66944 9.90208 10.76224 19.7632 18.11456 29.30688a5.2224 5.2224 0 0 1-4.08576 8.40704zM741.45792 721.5616a5.20192 5.20192 0 0 1-5.13024-6.01088c0.89088-5.76512 1.34144-11.60192 1.34144-17.3568 0-2.87744 2.31424-5.21216 5.18144-5.21216 2.85696 0 5.18144 2.33472 5.18144 5.21216 0 6.28736-0.49152 12.66688-1.46432 18.95424a5.18144 5.18144 0 0 1-5.10976 4.41344z" fill="#136296" p-id="30133"></path><path d="M485.66272 530.13504c-29.2352 0-60.93824 7.56736-82.39104 13.91616a87.7568 87.7568 0 0 0-43.14112 28.672L325.632 614.84032a5.2224 5.2224 0 0 0 3.9936 8.52992h156.03712a5.20192 5.20192 0 0 0 5.18144-5.21216V535.3472a5.20192 5.20192 0 0 0-5.18144-5.21216z m-5.1712 82.81088H340.60288l27.51488-33.5872a77.45536 77.45536 0 0 1 38.08256-25.30304c19.52768-5.77536 47.74912-12.60544 74.2912-13.4144v72.30464zM698.368 614.84032l-34.48832-42.10688a87.7568 87.7568 0 0 0-43.14112-28.672c-21.4528-6.3488-53.16608-13.91616-82.39104-13.91616a5.20192 5.20192 0 0 0-5.18144 5.21216v82.81088c0 2.87744 2.31424 5.21216 5.18144 5.21216H694.3744a5.23264 5.23264 0 0 0 3.9936-8.54016z m-154.85952-1.8944v-72.30464c26.54208 0.80896 54.77376 7.63904 74.2912 13.4144a77.54752 77.54752 0 0 1 38.08256 25.30304l27.51488 33.5872H543.50848z" fill="#136296" p-id="30134"></path><path d="M971.1616 684.96384a5.1712 5.1712 0 0 0-3.88096-1.39264c-91.00288 6.12352-194.99008 8.74496-219.24864 9.29792V661.0944a237.2608 237.2608 0 0 0-52.44928-149.05344c120.8832-10.6496 209.65376-30.464 227.4304-50.97472 8.5504-9.87136 11.38688-18.432 8.42752-25.42592-3.95264-9.3696-16.5376-11.45856-21.0432-11.91936l-109.08672-71.24992a5.15072 5.15072 0 0 0-7.15776 1.536 5.23264 5.23264 0 0 0 1.52576 7.20896l95.50848 62.38208H744.97024l-71.424-70.47168a5.15072 5.15072 0 0 0-7.3216 0.07168 5.2224 5.2224 0 0 0 0.07168 7.36256l63.88736 63.03744H576.768c-5.8368-131.33824-26.9824-261.12-44.032-348.06784C529.22368 57.58976 519.72096 51.2 512 51.2s-17.22368 6.38976-20.736 24.33024c-17.0496 86.94784-38.1952 216.73984-44.032 348.06784H293.81632l63.8976-63.03744a5.23264 5.23264 0 0 0 0.07168-7.36256 5.15072 5.15072 0 0 0-7.3216-0.07168l-71.43424 70.48192h-146.2272l95.51872-62.39232a5.23264 5.23264 0 0 0 1.52576-7.20896 5.15072 5.15072 0 0 0-7.15776-1.536l-109.08672 71.24992c-4.49536 0.45056-17.08032 2.54976-21.0432 11.91936-2.95936 7.00416-0.12288 15.55456 8.42752 25.42592 17.77664 20.51072 106.5472 40.32512 227.4304 50.97472A237.2608 237.2608 0 0 0 275.968 661.0944v31.77472c-24.25856-0.55296-128.23552-3.1744-219.24864-9.29792a5.08928 5.08928 0 0 0-3.88096 1.39264 5.25312 5.25312 0 0 0-1.6384 3.80928v174.2848c0 2.01728 1.14688 3.84 2.95936 4.7104 9.15456 4.37248 19.13856 8.23296 29.71648 11.65312 74.01472 23.9104 176.78336 25.89696 224.0512 26.79808 4.87424 0.09216 9.1136 0.17408 12.70784 0.27648C354.95936 947.02592 406.00576 972.8 462.94016 972.8h98.10944c56.94464 0 107.99104-25.77408 142.30528-66.31424 3.59424-0.09216 7.8336-0.17408 12.70784-0.27648 47.26784-0.91136 150.04672-2.88768 224.0512-26.79808a242.29888 242.29888 0 0 0 29.71648-11.65312 5.18144 5.18144 0 0 0 2.9696-4.70016v-174.2848a5.25312 5.25312 0 0 0-1.6384-3.80928z m-8.71424 9.3696v107.63264c-66.16064 30.18752-176.61952 34.39616-221.98272 35.56352l0.17408-0.60416 0.4608-1.61792c0.5632-2.01728 1.09568-4.03456 1.59744-6.08256l0.27648-1.19808a189.62432 189.62432 0 0 0 4.6592-31.50848c0.07168-1.0752 0.14336-2.1504 0.19456-3.23584 0.13312-2.87744 0.21504-5.75488 0.21504-8.64256v-81.36704c23.49056-0.512 124.32384-3.05152 214.40512-8.93952zM921.9072 439.71584c1.20832 2.88768-1.2288 8.17152-6.7072 14.49984-13.06624 15.07328-89.9072 36.48512-227.86048 48.08704a236.3904 236.3904 0 0 0-106.1888-68.29056h327.3728c3.62496 0.23552 11.80672 1.9456 13.38368 5.70368zM501.42208 77.54752c2.1504-10.93632 6.99392-15.9232 10.57792-15.9232s8.43776 4.98688 10.57792 15.9232c13.90592 70.93248 37.65248 208.29184 43.85792 346.05056H457.56416c6.20544-137.75872 29.94176-275.11808 43.85792-346.05056zM108.8 454.21568c-5.4784-6.31808-7.92576-11.61216-6.7072-14.49984 1.59744-3.80928 9.94304-5.51936 13.24032-5.70368h327.5264a236.30848 236.30848 0 0 0-106.1888 68.29056c-137.96352-11.60192-214.80448-33.00352-227.87072-48.08704zM275.968 703.29344v81.36704c0 2.88768 0.08192 5.76512 0.21504 8.64256 0.0512 1.08544 0.12288 2.16064 0.19456 3.23584a218.624 218.624 0 0 0 0.79872 9.24672 190.19776 190.19776 0 0 0 3.86048 22.26176l0.27648 1.19808a176.896 176.896 0 0 0 2.05824 7.70048l0.17408 0.60416c-45.3632-1.16736-155.82208-5.38624-221.98272-35.56352V694.33344c90.07104 5.888 190.90432 8.42752 214.40512 8.96zM61.55264 859.72992v-46.34624c70.27712 30.1056 182.82496 33.61792 225.34144 34.65216l0.12288 0.31744c1.34144 3.74784 2.816 7.44448 4.39296 11.07968 0.4096 0.96256 0.83968 1.90464 1.26976 2.85696l1.19808 2.64192c0.47104 1.00352 0.96256 1.9968 1.45408 2.99008a241.28512 241.28512 0 0 0 3.13344 6.15424l0.53248 0.94208c1.6384 3.00032 3.328 5.96992 5.13024 8.88832 0.44032 0.7168 0.91136 1.41312 1.36192 2.12992 2.048 3.2256 4.17792 6.41024 6.43072 9.51296l0.22528 0.33792-4.02432-0.08192c-52.62336-1.01376-174.8992-3.36896-246.56896-36.07552z m499.5072 102.64576H462.9504c-63.76448 0-119.74656-34.19136-150.79424-85.2992l-0.57344-0.96256a167.7824 167.7824 0 0 1-6.8096-12.51328c-0.5632-1.14688-1.1264-2.28352-1.66912-3.44064-0.50176-1.06496-0.96256-2.14016-1.44384-3.20512a146.8416 146.8416 0 0 1-1.69984-3.93216l-0.5632-1.37216a206.92992 206.92992 0 0 1-2.21184-5.75488l-0.67584-1.87392c-2.3552-6.68672-4.32128-13.5168-5.86752-20.44928l-0.22528-0.96256a191.488 191.488 0 0 1-2.80576-16.8448 134.656 134.656 0 0 1-0.49152-4.5568c-0.14336-1.536-0.24576-3.08224-0.34816-4.62848-0.08192-1.1776-0.17408-2.34496-0.22528-3.52256a175.70816 175.70816 0 0 1-0.21504-8.3968V661.0944a226.90816 226.90816 0 0 1 56.2176-149.72928c0.08192-0.08192 0.19456-0.11264 0.27648-0.2048a226.24256 226.24256 0 0 1 109.28128-68.9152 4.7104 4.7104 0 0 0 1.06496-0.16384c39.45472-10.71104 78.20288-10.71104 117.66784 0 0.31744 0.08192 0.63488 0.1024 0.96256 0.13312a226.27328 226.27328 0 0 1 109.38368 68.94592c0.08192 0.09216 0.19456 0.12288 0.27648 0.2048a226.87744 226.87744 0 0 1 56.2176 149.72928V784.65024c0 2.816-0.08192 5.61152-0.21504 8.3968-0.0512 1.1776-0.1536 2.34496-0.22528 3.52256-0.1024 1.54624-0.2048 3.09248-0.34816 4.62848-0.14336 1.52576-0.31744 3.04128-0.49152 4.5568-0.13312 1.11616-0.26624 2.23232-0.41984 3.33824-0.24576 1.75104-0.50176 3.50208-0.79872 5.25312l-0.4096 2.29376a191.488 191.488 0 0 1-1.1776 5.95968l-0.22528 0.96256a178.62656 178.62656 0 0 1-5.86752 20.44928l-0.67584 1.87392c-0.60416 1.66912-1.23904 3.31776-1.90464 4.9664l-0.3072 0.78848-0.5632 1.37216c-0.54272 1.32096-1.1264 2.63168-1.69984 3.93216-0.48128 1.0752-0.94208 2.1504-1.44384 3.20512-0.54272 1.15712-1.10592 2.29376-1.66912 3.44064a182.05696 182.05696 0 0 1-6.8096 12.51328l-0.57344 0.96256c-31.05792 51.12832-87.02976 85.30944-150.79424 85.30944z m401.38752-102.64576C890.7776 892.42624 768.512 894.78144 715.8784 895.7952l-4.02432 0.08192 0.22528-0.33792c2.2528-3.10272 4.37248-6.27712 6.42048-9.50272 0.45056-0.7168 0.9216-1.41312 1.37216-2.14016 1.792-2.9184 3.49184-5.888 5.12-8.88832l0.53248-0.94208c0.45056-0.82944 0.88064-1.66912 1.32096-2.5088 0.62464-1.20832 1.21856-2.42688 1.81248-3.64544 0.49152-0.99328 0.98304-1.98656 1.45408-2.99008 0.4096-0.8704 0.80896-1.75104 1.19808-2.63168 0.43008-0.95232 0.86016-1.90464 1.26976-2.8672a195.87072 195.87072 0 0 0 4.51584-11.38688c42.51648-1.03424 155.06432-4.54656 225.34144-34.65216v46.34624z" fill="#136296" p-id="30135"></path></svg>