<?xml version="1.0" standalone="no"?><!DOCTYPE svg PUBLIC "-//W3C//DTD SVG 1.1//EN" "http://www.w3.org/Graphics/SVG/1.1/DTD/svg11.dtd"><svg t="1678518555373" class="icon" viewBox="0 0 1024 1024" version="1.1" xmlns="http://www.w3.org/2000/svg" p-id="30275" xmlns:xlink="http://www.w3.org/1999/xlink" width="200" height="200"><path d="M512 320.59392c-59.67872 0-108.06272 48.05632-108.06272 107.34592v57.09824c0 46.68416 38.10304 84.5312 85.10464 84.5312h45.9264c47.0016 0 85.10464-37.84704 85.10464-84.5312V427.9296C620.06272 368.65024 571.67872 320.59392 512 320.59392z" fill="#53C2BA" p-id="30276"></path><path d="M500.74624 379.74016v38.26688h-73.04192s4.99712-38.26688 73.04192-38.26688zM523.25376 379.74016v38.26688h73.04192s-4.99712-38.26688-73.04192-38.26688z" fill="#FFFFFF" p-id="30277"></path><path d="M248.30976 519.1168a55.30624 54.9376 0 1 0 110.61248 0 55.30624 54.9376 0 1 0-110.61248 0Z" fill="#FEE36F" p-id="30278"></path><path d="M280.91392 519.1168a22.70208 22.54848 0 1 0 45.40416 0 22.70208 22.54848 0 1 0-45.40416 0Z" fill="#FFFFFF" p-id="30279"></path><path d="M665.07776 519.1168a55.30624 54.9376 0 1 0 110.61248 0 55.30624 54.9376 0 1 0-110.61248 0Z" fill="#FEE36F" p-id="30280"></path><path d="M697.68192 519.1168a22.70208 22.54848 0 1 0 45.40416 0 22.70208 22.54848 0 1 0-45.40416 0Z" fill="#FFFFFF" p-id="30281"></path><path d="M921.344 406.0672c-57.0368 31.80544-301.28128 39.0144-301.28128 39.0144v39.95648a83.8656 83.8656 0 0 1-19.56864 53.92384c18.92352-0.5632 38.64576-2.12992 66.32448-6.38976a54.50752 54.50752 0 0 1-1.7408-13.45536c0-30.34112 24.76032-54.9376 55.30624-54.9376a55.1424 55.1424 0 0 1 54.6816 47.14496c16.92672-3.74784 35.54304-7.99744 56.2176-12.82048 183.11168-42.74176 147.08736-124.24192 90.0608-92.43648zM303.616 464.1792c30.54592 0 55.30624 24.59648 55.30624 54.9376 0 4.64896-0.64512 9.14432-1.7408 13.45536 27.66848 4.25984 47.39072 5.82656 66.32448 6.38976a83.84512 83.84512 0 0 1-19.56864-53.92384v-39.95648s-244.24448-7.20896-301.28128-39.0144-93.05088 49.69472 90.05056 92.43648c20.67456 4.82304 39.29088 9.07264 56.2176 12.82048a55.16288 55.16288 0 0 1 54.69184-47.14496z" fill="#53C2BA" p-id="30282"></path><path d="M512 320.59392c9.75872 0 19.17952 1.40288 28.17024 3.80928-2.36544-64.1536-13.30176-128.6656-20.8384-166.6048-2.46784-12.40064-12.19584-12.40064-14.66368 0-7.53664 37.9392-18.47296 102.4512-20.8384 166.6048A108.72832 108.72832 0 0 1 512 320.59392z" fill="#FEE36F" p-id="30283"></path><path d="M321.4336 333.91616c7.76192 8.84736 50.51392 18.31936 109.55776 23.1424A108.01152 108.01152 0 0 1 512 320.59392H326.31808s-15.88224 0.78848-4.88448 13.32224zM697.68192 320.59392H512c32.29696 0 61.20448 14.15168 81.00864 36.46464 59.04384-4.8128 101.79584-14.29504 109.55776-23.1424 10.99776-12.53376-4.88448-13.32224-4.88448-13.32224z" fill="#53C2BA" p-id="30284"></path><path d="M427.70432 423.15776h73.04192a5.16096 5.16096 0 0 0 5.18144-5.14048v-38.26688a5.16096 5.16096 0 0 0-5.18144-5.14048c-71.76192 0-77.94688 41.00096-78.17216 42.752a5.14048 5.14048 0 0 0 5.13024 5.79584z m67.86048-38.1952v27.904h-60.78464c4.38272-9.32864 18.20672-26.60352 60.78464-27.904zM523.25376 423.15776h73.04192a5.19168 5.19168 0 0 0 3.8912-1.75104 5.12 5.12 0 0 0 1.23904-4.05504c-0.22528-1.7408-6.41024-42.752-78.17216-42.752a5.16096 5.16096 0 0 0-5.18144 5.14048v38.26688a5.1712 5.1712 0 0 0 5.18144 5.15072z m5.18144-38.1952c42.5984 1.30048 56.4224 18.59584 60.79488 27.904h-60.79488v-27.904zM303.616 491.42784a27.81184 27.81184 0 0 0-27.87328 27.68896 27.81184 27.81184 0 0 0 27.87328 27.68896 27.81184 27.81184 0 0 0 27.87328-27.68896 27.81184 27.81184 0 0 0-27.87328-27.68896z m0 45.08672a17.48992 17.48992 0 0 1-17.52064-17.408c0-9.59488 7.86432-17.39776 17.52064-17.39776 9.65632 0 17.52064 7.80288 17.52064 17.39776 0 9.60512-7.85408 17.408-17.52064 17.408zM720.384 491.42784a27.81184 27.81184 0 0 0-27.87328 27.68896c0 15.26784 12.50304 27.68896 27.87328 27.68896s27.87328-12.42112 27.87328-27.68896a27.81184 27.81184 0 0 0-27.87328-27.68896z m0 45.08672a17.48992 17.48992 0 0 1-17.52064-17.408c0-9.59488 7.86432-17.39776 17.52064-17.39776s17.52064 7.80288 17.52064 17.39776c0 9.60512-7.86432 17.408-17.52064 17.408z" fill="#136296" p-id="30285"></path><path d="M191.52896 503.51104c18.92352 4.41344 36.0448 8.31488 51.80416 11.83744-0.08192 1.24928-0.19456 2.49856-0.19456 3.76832 0 33.1264 27.136 60.07808 60.47744 60.07808a60.5184 60.5184 0 0 0 57.26208-40.87808c22.26176 3.29728 40.704 5.03808 60.32384 5.70368a90.2656 90.2656 0 0 0 67.84 30.69952h45.9264a90.27584 90.27584 0 0 0 67.84-30.69952c19.61984-0.6656 38.06208-2.4064 60.32384-5.70368a60.5184 60.5184 0 0 0 57.26208 40.87808c33.35168 0 60.47744-26.95168 60.47744-60.07808 0-1.26976-0.11264-2.51904-0.19456-3.76832 15.75936-3.51232 32.88064-7.41376 51.80416-11.83744 120.04352-28.01664 137.25696-68.98688 139.6736-80.87552 1.97632-9.71776-1.13664-18.36032-8.51968-23.7056-10.76224-7.77216-27.93472-6.7584-44.82048 2.65216-50.688 28.27264-257.66912 36.88448-293.56032 38.17472V427.9296c0-24.91392-8.21248-47.94368-22.05696-66.6112 44.9536-4.1984 93.11232-12.43136 103.29088-24.03328 4.75136-5.41696 6.23616-10.33216 4.4032-14.62272-2.73408-6.4-11.25376-7.13728-12.93312-7.2192l-0.256-0.01024H544.95232c-2.90816-59.97568-12.65664-118.94784-20.54144-158.63808C522.4448 146.8928 516.7104 143.36 512 143.36s-10.4448 3.5328-12.41088 13.44512c-7.8848 39.69024-17.64352 98.6624-20.54144 158.63808l-152.9856 0.01024c-1.67936 0.08192-10.1888 0.8192-12.93312 7.2192-1.83296 4.28032-0.34816 9.19552 4.4032 14.62272 10.17856 11.59168 58.33728 19.82464 103.29088 24.03328a111.36 111.36 0 0 0-22.05696 66.6112v11.8272c-35.90144-1.29024-242.87232-9.90208-293.56032-38.17472-16.88576-9.41056-34.048-10.43456-44.82048-2.65216-7.39328 5.34528-10.496 13.98784-8.51968 23.7056 2.4064 11.8784 19.61984 52.84864 139.66336 80.86528z m112.08704 65.39264c-27.63776 0-50.1248-22.34368-50.1248-49.79712 0-2.39616 0.22528-4.73088 0.5632-7.04512l0.01024-0.02048c2.39616-16.72192 13.18912-30.6176 27.72992-37.69344l0.1536-0.07168c1.2288-0.59392 2.47808-1.1264 3.75808-1.61792l0.6656-0.24576c1.13664-0.41984 2.29376-0.80896 3.47136-1.14688l1.32096-0.33792a43.9296 43.9296 0 0 1 3.05152-0.70656c0.74752-0.14336 1.51552-0.23552 2.27328-0.34816 0.77824-0.11264 1.536-0.24576 2.32448-0.32768 1.5872-0.1536 3.19488-0.24576 4.8128-0.24576 27.63776 0 50.1248 22.34368 50.1248 49.79712 0 1.9456-0.13312 3.9424-0.38912 5.94944l-0.04096 0.28672a50.11456 50.11456 0 0 1-49.70496 43.5712z m416.768 0a50.09408 50.09408 0 0 1-49.69472-43.5712l-0.04096-0.28672a47.04256 47.04256 0 0 1-0.38912-5.94944c0-27.45344 22.48704-49.79712 50.1248-49.79712 1.62816 0 3.23584 0.09216 4.82304 0.24576 0.77824 0.07168 1.54624 0.21504 2.32448 0.32768 0.75776 0.11264 1.52576 0.2048 2.27328 0.34816 1.03424 0.19456 2.048 0.45056 3.05152 0.70656l1.32096 0.33792c1.1776 0.33792 2.33472 0.72704 3.47136 1.14688l0.6656 0.24576c1.28 0.49152 2.52928 1.024 3.75808 1.61792l0.1536 0.07168c14.5408 7.07584 25.33376 20.97152 27.72992 37.69344l0.01024 0.02048c0.32768 2.304 0.5632 4.64896 0.5632 7.04512-0.02048 27.46368-22.50752 49.79712-50.14528 49.79712z m203.48928-158.35136c15.9232-8.87808 28.07808-7.33184 33.64864-3.30752 4.096 2.95936 5.64224 7.5776 4.46464 13.35296-4.1472 20.39808-41.17504 51.72224-131.8912 72.89856-18.55488 4.33152-35.45088 8.192-50.95424 11.65312v-0.01024a60.38528 60.38528 0 0 0-38.08256-42.41408l-0.99328-0.3584a58.53184 58.53184 0 0 0-3.59424-1.10592c-0.65536-0.18432-1.32096-0.34816-1.97632-0.512a51.16928 51.16928 0 0 0-3.072-0.6656c-0.99328-0.18432-2.00704-0.31744-3.01056-0.4608-0.78848-0.1024-1.57696-0.23552-2.37568-0.3072a61.1328 61.1328 0 0 0-5.66272-0.28672c-33.35168 0-60.47744 26.95168-60.47744 60.07808 0 1.72032 0.1024 3.45088 0.26624 5.20192 0.08192 0.99328 0.22528 1.96608 0.3584 2.93888l0.12288 1.03424a513.37216 513.37216 0 0 1-49.664 5.08928c1.18784-1.8432 2.29376-3.72736 3.33824-5.64224l0.01024-0.01024c1.21856-2.22208 2.304-4.51584 3.31776-6.83008 0.3584-0.8192 0.69632-1.64864 1.03424-2.47808 0.65536-1.62816 1.26976-3.28704 1.82272-4.94592 0.29696-0.8704 0.60416-1.7408 0.88064-2.62144a93.2864 93.2864 0 0 0 1.85344-7.12704c0.16384-0.77824 0.28672-1.57696 0.43008-2.37568a82.66752 82.66752 0 0 0 1.15712-8.26368c0.24576-2.67264 0.4096-5.35552 0.4096-8.05888v-34.97984c36.18816-1.21856 245.05344-9.60512 298.63936-39.48544z m-222.67904-83.84512c-0.16384 0.53248-0.7168 1.76128-2.52928 3.82976-5.75488 6.56384-43.88864 16.13824-103.4752 21.17632a113.74592 113.74592 0 0 0-35.97312-25.97888h138.30144a10.06592 10.06592 0 0 1 3.67616 0.9728zM509.7472 158.79168c0.74752-3.76832 2.11968-5.04832 2.06848-5.18144 0.32768 0.13312 1.6896 1.41312 2.43712 5.18144 6.4 32.2048 17.24416 94.12608 20.33664 156.65152h-45.17888c3.09248-62.5152 13.93664-124.43648 20.33664-156.65152zM325.33504 330.53696c-1.81248-2.06848-2.36544-3.29728-2.52928-3.82976a9.9328 9.9328 0 0 1 3.51232-0.9728h138.46528a113.74592 113.74592 0 0 0-35.97312 25.97888c-59.58656-5.03808-97.72032-14.62272-103.4752-21.17632z m83.78368 97.39264c0-27.136 10.77248-51.77344 28.2112-70.0928a101.90848 101.90848 0 0 1 11.5712-10.45504 112.14848 112.14848 0 0 1 7.6288-5.39648 100.9664 100.9664 0 0 1 13.81376-7.424 104.6016 104.6016 0 0 1 9.85088-3.77856c1.01376-0.32768 2.048-0.62464 3.072-0.9216 0.78848-0.22528 1.5872-0.39936 2.38592-0.6144 3.44064-0.91136 6.87104-1.59744 10.2912-2.1504 1.18784-0.18432 2.37568-0.39936 3.57376-0.54272 1.3312-0.16384 2.65216-0.28672 3.97312-0.39936a101.72416 101.72416 0 0 1 9.5232-0.37888c2.53952 0.02048 5.03808 0.17408 7.53664 0.37888 1.32096 0.11264 2.65216 0.23552 3.97312 0.39936 1.20832 0.14336 2.38592 0.3584 3.57376 0.54272 3.42016 0.55296 6.85056 1.24928 10.2912 2.1504 0.78848 0.2048 1.5872 0.37888 2.37568 0.60416 1.03424 0.29696 2.06848 0.59392 3.09248 0.93184a101.376 101.376 0 0 1 9.85088 3.77856 105.61536 105.61536 0 0 1 9.2672 4.68992 104.30464 104.30464 0 0 1 23.64416 18.49344c17.48992 18.3296 28.29312 42.99776 28.29312 70.18496v45.33248c-1.2288 1.4848-3.584 4.1984-7.10656 7.5776a5.12 5.12 0 0 0-0.13312 7.2704 5.18144 5.18144 0 0 0 3.72736 1.57696 5.1712 5.1712 0 0 0 3.34848-1.28c-0.06144 1.37216-0.08192 2.75456-0.2048 4.11648-0.09216 0.99328-0.256 1.97632-0.38912 2.95936a73.728 73.728 0 0 1-0.6656 4.3008c-0.22528 1.16736-0.50176 2.32448-0.768 3.47136a72.76544 72.76544 0 0 1-3.34848 10.67008c-0.41984 1.05472-0.83968 2.10944-1.30048 3.14368a73.74848 73.74848 0 0 1-1.91488 3.9424c-0.41984 0.80896-0.8192 1.6384-1.25952 2.43712a80.04608 80.04608 0 0 1-3.072 5.0176c-0.23552 0.34816-0.44032 0.7168-0.67584 1.06496a80.03584 80.03584 0 0 1-66.14016 34.87744h-45.9264a80.04608 80.04608 0 0 1-66.14016-34.87744c-0.23552-0.34816-0.44032-0.7168-0.67584-1.06496a81.152 81.152 0 0 1-3.072-5.0176c-0.44032-0.79872-0.83968-1.61792-1.25952-2.42688a88.064 88.064 0 0 1-1.92512-3.95264 82.4832 82.4832 0 0 1-3.70688-10.17856 72.76544 72.76544 0 0 1-0.94208-3.6352c-0.27648-1.15712-0.55296-2.304-0.768-3.47136a85.36064 85.36064 0 0 1-0.6656-4.3008c-0.13312-0.98304-0.29696-1.96608-0.38912-2.95936-0.12288-1.35168-0.1536-2.73408-0.2048-4.11648a5.15072 5.15072 0 0 0 6.94272-7.56736 87.7568 87.7568 0 0 1-7.10656-7.5776V427.9296zM66.47808 407.2448c5.57056-4.03456 17.72544-5.5808 33.64864 3.30752 53.58592 29.88032 262.46144 38.26688 298.63936 39.50592v34.97984c0 2.70336 0.16384 5.38624 0.4096 8.05888 0.07168 0.84992 0.17408 1.67936 0.27648 2.51904 0.23552 1.92512 0.53248 3.84 0.88064 5.74464 0.14336 0.78848 0.26624 1.5872 0.43008 2.37568 0.512 2.4064 1.13664 4.78208 1.85344 7.12704 0.26624 0.88064 0.58368 1.75104 0.88064 2.62144 0.5632 1.66912 1.16736 3.31776 1.82272 4.94592 0.33792 0.82944 0.6656 1.65888 1.03424 2.47808a85.6576 85.6576 0 0 0 6.66624 12.48256 516.94592 516.94592 0 0 1-49.664-5.08928l0.12288-1.03424a55.83872 55.83872 0 0 0 0.62464-8.1408c0-33.1264-27.136-60.07808-60.47744-60.07808-1.90464 0-3.79904 0.11264-5.66272 0.28672-0.79872 0.07168-1.57696 0.2048-2.37568 0.3072a57.57952 57.57952 0 0 0-6.08256 1.1264 62.0544 62.0544 0 0 0-5.57056 1.61792l-0.99328 0.3584a60.38528 60.38528 0 0 0-38.08256 42.41408 5403.8528 5403.8528 0 0 1-50.95424-11.65312c-90.71616-21.17632-127.744-52.50048-131.8912-72.89856-1.1776-5.7856 0.36864-10.40384 4.46464-13.3632z" fill="#136296" p-id="30286"></path><path d="M596.74624 496.67072a5.20192 5.20192 0 0 0-7.168-1.4848c-6.47168 4.1984-13.38368 7.87456-20.54144 10.91584a5.12 5.12 0 0 0 2.03776 9.87136 5.0688 5.0688 0 0 0 2.02752-0.41984c7.72096-3.2768 15.17568-7.22944 22.13888-11.76576a5.10976 5.10976 0 0 0 1.50528-7.1168zM455.0656 506.15296a133.36576 133.36576 0 0 1-20.54144-10.89536 5.21216 5.21216 0 0 0-7.168 1.4848 5.12 5.12 0 0 0 1.49504 7.1168c6.9632 4.51584 14.41792 8.46848 22.14912 11.75552a5.1712 5.1712 0 0 0 6.78912-2.72384 5.10976 5.10976 0 0 0-2.72384-6.73792zM546.88768 513.35168a148.48 148.48 0 0 1-23.11168 3.5328 5.15072 5.15072 0 0 0-4.77184 5.50912c0.2048 2.70336 2.46784 4.7616 5.16096 4.7616l0.38912-0.01024a158.208 158.208 0 0 0 24.73984-3.7888 5.14048 5.14048 0 1 0-2.4064-10.00448zM500.33664 516.89472a147.61984 147.61984 0 0 1-23.11168-3.52256 5.15072 5.15072 0 0 0-2.39616 10.01472c7.99744 1.88416 16.32256 3.15392 24.73984 3.76832l0.38912 0.01024a5.14048 5.14048 0 0 0 0.37888-10.27072z" fill="#136296" p-id="30287"></path><path d="M56.38144 756.57216h911.24736c2.85696 0 5.18144-2.304 5.18144-5.14048s-2.31424-5.14048-5.18144-5.14048H56.38144c-2.8672 0-5.18144 2.304-5.18144 5.14048s2.31424 5.14048 5.18144 5.14048zM56.38144 794.07104h18.1248c2.85696 0 5.18144-2.304 5.18144-5.14048s-2.31424-5.14048-5.18144-5.14048h-18.1248c-2.8672 0-5.18144 2.304-5.18144 5.14048s2.31424 5.14048 5.18144 5.14048zM424.4992 783.79008h-35.00032c-2.85696 0-5.18144 2.304-5.18144 5.14048s2.31424 5.14048 5.18144 5.14048h35.00032c2.85696 0 5.18144-2.304 5.18144-5.14048s-2.32448-5.14048-5.18144-5.14048zM284.49792 783.79008h-35.00032c-2.85696 0-5.18144 2.304-5.18144 5.14048s2.31424 5.14048 5.18144 5.14048h35.00032c2.85696 0 5.18144-2.304 5.18144-5.14048s-2.32448-5.14048-5.18144-5.14048zM634.50112 783.79008h-35.00032c-2.85696 0-5.18144 2.304-5.18144 5.14048s2.31424 5.14048 5.18144 5.14048h35.00032c2.85696 0 5.18144-2.304 5.18144-5.14048s-2.32448-5.14048-5.18144-5.14048zM844.50304 783.79008h-35.00032c-2.85696 0-5.18144 2.304-5.18144 5.14048s2.31424 5.14048 5.18144 5.14048h35.00032c2.85696 0 5.18144-2.304 5.18144-5.14048s-2.32448-5.14048-5.18144-5.14048zM914.50368 783.79008h-35.00032c-2.85696 0-5.18144 2.304-5.18144 5.14048s2.31424 5.14048 5.18144 5.14048h35.00032c2.85696 0 5.18144-2.304 5.18144-5.14048s-2.32448-5.14048-5.18144-5.14048zM354.49856 783.79008h-35.00032c-2.85696 0-5.18144 2.304-5.18144 5.14048s2.31424 5.14048 5.18144 5.14048h35.00032c2.85696 0 5.18144-2.304 5.18144-5.14048s-2.32448-5.14048-5.18144-5.14048zM739.50208 783.79008c-2.85696 0-5.18144 2.304-5.18144 5.14048s2.31424 5.14048 5.18144 5.14048h35.00032c2.85696 0 5.18144-2.304 5.18144-5.14048s-2.31424-5.14048-5.18144-5.14048h-35.00032zM529.50016 783.79008c-2.85696 0-5.18144 2.304-5.18144 5.14048s2.31424 5.14048 5.18144 5.14048h35.00032c2.85696 0 5.18144-2.304 5.18144-5.14048s-2.31424-5.14048-5.18144-5.14048h-35.00032zM704.50176 783.79008h-35.00032c-2.85696 0-5.18144 2.304-5.18144 5.14048s2.31424 5.14048 5.18144 5.14048h35.00032c2.85696 0 5.18144-2.304 5.18144-5.14048s-2.32448-5.14048-5.18144-5.14048zM214.49728 783.79008h-35.00032c-2.85696 0-5.18144 2.304-5.18144 5.14048s2.31424 5.14048 5.18144 5.14048h35.00032c2.85696 0 5.18144-2.304 5.18144-5.14048s-2.32448-5.14048-5.18144-5.14048zM494.49984 783.79008h-35.00032c-2.85696 0-5.18144 2.304-5.18144 5.14048s2.31424 5.14048 5.18144 5.14048h35.00032c2.85696 0 5.18144-2.304 5.18144-5.14048s-2.32448-5.14048-5.18144-5.14048zM144.49664 783.79008h-35.00032c-2.85696 0-5.18144 2.304-5.18144 5.14048s2.31424 5.14048 5.18144 5.14048h35.00032c2.85696 0 5.18144-2.304 5.18144-5.14048s-2.32448-5.14048-5.18144-5.14048zM967.61856 783.79008h-18.1248c-2.85696 0-5.18144 2.304-5.18144 5.14048s2.31424 5.14048 5.18144 5.14048h18.1248c2.85696 0 5.18144-2.304 5.18144-5.14048s-2.31424-5.14048-5.18144-5.14048zM82.26816 828.33408H56.38144c-2.8672 0-5.18144 2.304-5.18144 5.14048s2.31424 5.14048 5.18144 5.14048h25.88672c2.85696 0 5.18144-2.304 5.18144-5.14048s-2.32448-5.14048-5.18144-5.14048zM289.66912 833.47456a5.16096 5.16096 0 0 0-5.18144-5.14048h-50.55488c-2.85696 0-5.18144 2.304-5.18144 5.14048s2.31424 5.14048 5.18144 5.14048h50.55488c2.8672 0 5.18144-2.304 5.18144-5.14048zM587.83744 828.33408h-50.55488c-2.85696 0-5.18144 2.304-5.18144 5.14048s2.31424 5.14048 5.18144 5.14048h50.55488c2.85696 0 5.18144-2.304 5.18144-5.14048s-2.32448-5.14048-5.18144-5.14048zM491.89888 833.47456a5.16096 5.16096 0 0 0-5.18144-5.14048h-50.55488c-2.85696 0-5.18144 2.304-5.18144 5.14048s2.31424 5.14048 5.18144 5.14048h50.55488c2.8672 0 5.18144-2.304 5.18144-5.14048zM790.0672 828.33408h-50.55488c-2.85696 0-5.18144 2.304-5.18144 5.14048s2.31424 5.14048 5.18144 5.14048h50.55488c2.85696 0 5.18144-2.304 5.18144-5.14048s-2.32448-5.14048-5.18144-5.14048zM127.6416 833.47456c0 2.83648 2.31424 5.14048 5.18144 5.14048h50.55488c2.85696 0 5.18144-2.304 5.18144-5.14048s-2.31424-5.14048-5.18144-5.14048h-50.55488a5.16096 5.16096 0 0 0-5.18144 5.14048zM329.87136 833.47456c0 2.83648 2.31424 5.14048 5.18144 5.14048h50.55488c2.85696 0 5.18144-2.304 5.18144-5.14048s-2.31424-5.14048-5.18144-5.14048H335.0528a5.16096 5.16096 0 0 0-5.18144 5.14048zM835.44064 833.47456c0 2.83648 2.31424 5.14048 5.18144 5.14048h50.55488c2.85696 0 5.18144-2.304 5.18144-5.14048s-2.31424-5.14048-5.18144-5.14048h-50.55488a5.16096 5.16096 0 0 0-5.18144 5.14048zM633.21088 833.47456c0 2.83648 2.31424 5.14048 5.18144 5.14048h50.55488c2.85696 0 5.18144-2.304 5.18144-5.14048s-2.31424-5.14048-5.18144-5.14048h-50.55488a5.16096 5.16096 0 0 0-5.18144 5.14048zM967.61856 828.33408h-25.88672c-2.85696 0-5.18144 2.304-5.18144 5.14048s2.31424 5.14048 5.18144 5.14048h25.88672c2.85696 0 5.18144-2.304 5.18144-5.14048s-2.31424-5.14048-5.18144-5.14048zM74.496 870.35904h-18.1248c-2.85696 0-5.1712 2.304-5.1712 5.14048s2.31424 5.14048 5.18144 5.14048h18.1248c2.85696 0 5.18144-2.304 5.18144-5.14048s-2.32448-5.14048-5.19168-5.14048zM914.50368 870.35904h-35.00032c-2.85696 0-5.18144 2.304-5.18144 5.14048s2.31424 5.14048 5.18144 5.14048h35.00032c2.85696 0 5.18144-2.304 5.18144-5.14048s-2.32448-5.14048-5.18144-5.14048zM704.50176 870.35904h-35.00032c-2.85696 0-5.18144 2.304-5.18144 5.14048s2.32448 5.14048 5.18144 5.14048h35.00032c2.85696 0 5.18144-2.304 5.18144-5.14048s-2.32448-5.14048-5.18144-5.14048zM774.5024 870.35904h-35.00032c-2.85696 0-5.18144 2.304-5.18144 5.14048s2.32448 5.14048 5.18144 5.14048h35.00032c2.85696 0 5.18144-2.304 5.18144-5.14048s-2.32448-5.14048-5.18144-5.14048zM844.50304 870.35904h-35.00032c-2.85696 0-5.18144 2.304-5.18144 5.14048s2.32448 5.14048 5.18144 5.14048h35.00032c2.85696 0 5.18144-2.304 5.18144-5.14048s-2.32448-5.14048-5.18144-5.14048zM354.49856 870.35904h-35.00032c-2.85696 0-5.18144 2.304-5.18144 5.14048s2.32448 5.14048 5.18144 5.14048h35.00032c2.85696 0 5.18144-2.304 5.18144-5.14048s-2.32448-5.14048-5.18144-5.14048zM284.49792 870.35904h-35.00032c-2.85696 0-5.18144 2.304-5.18144 5.14048s2.32448 5.14048 5.18144 5.14048h35.00032c2.85696 0 5.18144-2.304 5.18144-5.14048s-2.32448-5.14048-5.18144-5.14048zM634.50112 870.35904h-35.00032c-2.85696 0-5.18144 2.304-5.18144 5.14048s2.32448 5.14048 5.18144 5.14048h35.00032c2.85696 0 5.18144-2.304 5.18144-5.14048s-2.32448-5.14048-5.18144-5.14048zM214.49728 870.35904h-35.00032c-2.85696 0-5.18144 2.304-5.18144 5.14048s2.32448 5.14048 5.18144 5.14048h35.00032c2.85696 0 5.18144-2.304 5.18144-5.14048s-2.32448-5.14048-5.18144-5.14048zM144.49664 870.35904h-35.00032c-2.85696 0-5.18144 2.304-5.18144 5.14048s2.32448 5.14048 5.18144 5.14048h35.00032c2.85696 0 5.18144-2.304 5.18144-5.14048s-2.32448-5.14048-5.18144-5.14048zM424.4992 870.35904h-35.00032c-2.85696 0-5.18144 2.304-5.18144 5.14048s2.32448 5.14048 5.18144 5.14048h35.00032c2.85696 0 5.18144-2.304 5.18144-5.14048s-2.32448-5.14048-5.18144-5.14048zM494.49984 870.35904h-35.00032c-2.85696 0-5.18144 2.304-5.18144 5.14048s2.32448 5.14048 5.18144 5.14048h35.00032c2.85696 0 5.18144-2.304 5.18144-5.14048s-2.32448-5.14048-5.18144-5.14048zM564.50048 870.35904h-35.00032c-2.85696 0-5.18144 2.304-5.18144 5.14048s2.32448 5.14048 5.18144 5.14048h35.00032c2.85696 0 5.18144-2.304 5.18144-5.14048s-2.32448-5.14048-5.18144-5.14048zM967.61856 870.35904h-18.1248c-2.85696 0-5.18144 2.304-5.18144 5.14048s2.32448 5.14048 5.19168 5.14048h18.1248c2.85696 0 5.1712-2.304 5.1712-5.14048s-2.31424-5.14048-5.18144-5.14048z" fill="#136296" p-id="30288"></path></svg>