<?xml version="1.0" standalone="no"?><!DOCTYPE svg PUBLIC "-//W3C//DTD SVG 1.1//EN" "http://www.w3.org/Graphics/SVG/1.1/DTD/svg11.dtd"><svg t="1678374218747" class="icon" viewBox="0 0 1024 1024" version="1.1" xmlns="http://www.w3.org/2000/svg" p-id="11423" xmlns:xlink="http://www.w3.org/1999/xlink" width="200" height="200"><path d="M512 243.2m-179.2 0a179.2 179.2 0 1 0 358.4 0 179.2 179.2 0 1 0-358.4 0Z" fill="#003DE6" p-id="11424"></path><path d="M928 886.4032c0-255.9936-144-398.3904-416-399.9904S96 630.4096 96 886.4032V958.4c0 35.3456 28.6544 64 64 64h704c35.3456 0 64-28.6544 64-64v-71.9968z" fill="#C2EBFF" p-id="11425"></path><path d="M656 759.0368l-61.3088 23.6992 5.3952-61.32L556.8 674.744l64.6432-14.1984L656 608l34.5568 52.5456L755.2 674.744l-43.2864 46.672 5.3952 61.32z" fill="#3399FF" p-id="11426"></path></svg>