<?xml version="1.0" standalone="no"?><!DOCTYPE svg PUBLIC "-//W3C//DTD SVG 1.1//EN" "http://www.w3.org/Graphics/SVG/1.1/DTD/svg11.dtd"><svg t="1679567102679" class="icon" viewBox="0 0 1024 1024" version="1.1" xmlns="http://www.w3.org/2000/svg" p-id="3010" xmlns:xlink="http://www.w3.org/1999/xlink" width="200" height="200"><path d="M812.518 737.052l-170.682-170.65a21.336 21.336 0 0 0-30.188 0L566.4 611.684c-4 4-6.25 9.406-6.25 15.062s2.25 11.094 6.25 15.094l170.68 170.648a21.144 21.144 0 0 0 15.062 6.25c5.468 0 10.938-2.062 15.094-6.25l45.282-45.248a21.35 21.35 0 0 0 0-30.188z" fill="#CCD1D9" p-id="3011"></path><path d="M604.118 121.34c133.306 133.324 133.306 349.458 0 482.78-133.308 133.306-349.458 133.306-482.78 0-133.308-133.324-133.308-349.458 0-482.78 133.322-133.322 349.472-133.322 482.78 0z" fill="#5D9CEC" p-id="3012"></path><path d="M1017.728 897.048L739.892 619.184c-8.344-8.312-21.844-8.312-30.186 0l-90.496 90.558a21.306 21.306 0 0 0 0 30.154l277.834 277.836a21.306 21.306 0 0 0 30.156 0l90.528-90.53c8.344-8.34 8.344-21.84 0-30.154z" fill="#434A54" p-id="3013"></path><path d="M335.034 304.976c8.344 8.328 8.344 21.842 0 30.17-8.328 8.328-21.842 8.328-30.17 0s-8.328-21.844 0-30.17c8.326-8.344 21.842-8.344 30.17 0z" fill="#7F4545" p-id="3014"></path><path d="M466.498 351.116c-31.328-82.466-115.23-113.826-118.776-115.106a21.34 21.34 0 0 0-22.968 5.562 21.348 21.348 0 0 0-3.75 23.328c0.156 0.344 15.546 34.624 18.624 84.092 4.11 65.982-15.156 124.73-57.232 174.602a21.334 21.334 0 0 0 16.312 35.094h122.166c7.844 0 15.046-4.312 18.766-11.188 39.544-73.17 48.574-139.246 26.858-196.384z" fill="#965353" p-id="3015"></path><path d="M363.158 512.08c-151.198 0-248.32 72.01-248.32 72.01v14.468l98.434 66.874 117.838 38.686h95.528l141.824-72.028 42.154-48c0.002 0-96.26-72.01-247.458-72.01z" fill="#FFCE54" p-id="3016"></path><path d="M371.594 128.466c-19.796-30.702-10.438-83.294-5.172-100.934A21.34 21.34 0 0 0 334.986 3.08c-1.062 0.64-26.14 15.938-49 44.122-31.092 38.36-43.716 82.53-36.514 127.748 11.578 72.636 80.278 99.886 83.2 101.012 2.5 0.968 5.094 1.422 7.656 1.422 7.704 0 15.078-4.188 18.858-11.36 4.674-8.814 44.642-87.59 12.408-137.558z" fill="#8CC153" p-id="3017"></path><path d="M354.376 239.978c-1.562-1.36-38.748-33.374-86.388-33.374-20.936 0-40.624 6.062-58.56 18.014-32.936 21.966-52.67 63.576-58.624 123.668-4.17 42.124 0.14 78.2 0.328 79.716a21.326 21.326 0 0 0 18.438 18.544c0.922 0.124 1.844 0.188 2.75 0.188 8.64 0 16.546-5.25 19.812-13.436 0.094-0.234 9.376-23.31 25.812-49.358 20.67-32.748 43.28-55.544 65.372-65.904 46.92-21.998 71.108-45.888 72.108-46.904 4.172-4.172 6.438-9.89 6.234-15.796s-2.828-11.468-7.282-15.358z" fill="#A0D468" p-id="3018"></path><path d="M569.12 155.576c-1.968-1.734-49.108-42.64-110.278-42.64-18.264 0-36 3.656-52.748 10.86-75.28 32.39-86.53 125.932-86.966 129.902a21.284 21.284 0 0 0 5 16.218 21.282 21.282 0 0 0 15.266 7.454c0.218 0 2.36 0.094 5.876 0.094 10.342 0 30.952-0.75 52.92-5.812 29.858-6.876 52.138-19.312 66.184-36.984 31.906-40.108 90.404-41.732 90.934-41.732a21.346 21.346 0 0 0 13.812-37.36z" fill="#A0D468" p-id="3019"></path><path d="M464.668 490.75c4.812-14.344 8.344-28.36 10.562-42.032a21.2 21.2 0 0 0-5.11-0.64h-34.218c-11.782 0-21.342 9.546-21.342 21.328s9.56 21.344 21.342 21.344h28.766zM373.47 362.724h-33.342c0.204 14.578-0.796 28.764-2.954 42.578 0.688 0.062 1.376 0.11 2.062 0.11h34.234c11.78 0 21.328-9.562 21.328-21.344-0.002-11.782-9.548-21.344-21.328-21.344z" fill="#7F4545" p-id="3020"></path><path d="M249.692 582.34c8.328 8.344 8.328 21.844 0 30.156-8.328 8.344-21.842 8.344-30.17 0-8.328-8.312-8.328-21.812 0-30.156 8.328-8.344 21.842-8.344 30.17 0zM292.362 539.67c8.344 8.328 8.344 21.828 0 30.17-8.328 8.344-21.842 8.344-30.17 0-8.328-8.342-8.328-21.842 0-30.17s21.842-8.328 30.17 0zM335.034 582.34c8.344 8.344 8.344 21.844 0 30.156-8.328 8.344-21.842 8.344-30.17 0-8.328-8.312-8.328-21.812 0-30.156s21.842-8.344 30.17 0zM377.72 539.67c8.328 8.328 8.328 21.828 0 30.17a21.33 21.33 0 0 1-30.186 0c-8.328-8.342-8.328-21.842 0-30.17 8.342-8.328 21.842-8.328 30.186 0zM420.388 582.34c8.328 8.344 8.328 21.844 0 30.156a21.33 21.33 0 0 1-30.186 0c-8.328-8.312-8.328-21.812 0-30.156a21.33 21.33 0 0 1 30.186 0zM463.06 539.67c8.328 8.328 8.328 21.828 0 30.17-8.344 8.344-21.842 8.344-30.17 0-8.344-8.342-8.344-21.842 0-30.17 8.326-8.328 21.826-8.328 30.17 0zM505.73 582.34c8.328 8.344 8.328 21.844 0 30.156-8.328 8.344-21.844 8.344-30.17 0-8.344-8.312-8.344-21.812 0-30.156 8.326-8.344 21.842-8.344 30.17 0zM292.362 624.996c8.344 8.344 8.344 21.874 0 30.186-8.328 8.344-21.842 8.344-30.17 0-8.328-8.312-8.328-21.842 0-30.186 8.328-8.312 21.842-8.312 30.17 0zM377.72 624.996c8.328 8.344 8.328 21.874 0 30.186a21.33 21.33 0 0 1-30.186 0c-8.328-8.312-8.328-21.842 0-30.186 8.342-8.312 21.842-8.312 30.186 0zM463.06 624.996c8.328 8.344 8.328 21.874 0 30.186-8.344 8.344-21.842 8.344-30.17 0-8.344-8.312-8.344-21.842 0-30.186 8.326-8.312 21.826-8.312 30.17 0z" fill="#F6BB42" p-id="3021"></path><path d="M362.736 725.428c-96.888 0-187.978-37.714-256.476-106.244C37.746 550.686 0.03 459.61 0.014 362.724c0-96.872 37.732-187.962 106.246-256.476C174.774 37.75 265.848 0.018 362.736 0.018c96.886 0 187.946 37.732 256.476 106.23 68.498 68.514 106.212 159.604 106.212 256.476 0 96.886-37.714 187.962-106.212 256.46-68.53 68.528-159.59 106.244-256.476 106.244z m0-682.74c-85.482 0-165.854 33.296-226.304 93.748C75.98 196.87 42.7 277.242 42.7 362.724c0 85.496 33.28 165.868 93.732 226.304 60.452 60.466 140.808 93.748 226.304 93.748 85.482 0 165.854-33.282 226.288-93.748 60.468-60.452 93.748-140.808 93.748-226.304 0-85.482-33.28-165.854-93.748-226.304-60.434-60.436-140.808-93.732-226.288-93.732z" fill="#E6E9ED" p-id="3022"></path></svg>